<mxfile host="app.diagrams.net" agent="Mozilla/5.0 (Windows NT 10.0; Win64; x64) AppleWebKit/537.36 (KHTML, like Gecko) Chrome/138.0.0.0 Safari/537.36 OPR/122.0.0.0" version="28.2.7">
  <diagram name="Strona-1" id="KKd2Xut5Ee4V9r5htVRU">
    <mxGraphModel grid="1" page="1" gridSize="10" guides="1" tooltips="1" connect="1" arrows="1" fold="1" pageScale="1" pageWidth="827" pageHeight="1169" math="0" shadow="0">
      <root>
        <mxCell id="0" />
        <mxCell id="1" parent="0" />
        <mxCell id="a5dJ91-_Ea5F4a9I8LIr-16" style="edgeStyle=orthogonalEdgeStyle;rounded=0;orthogonalLoop=1;jettySize=auto;html=1;entryX=0;entryY=0;entryDx=0;entryDy=0;" edge="1" parent="1" source="uLPrjtta-uE3l_ocZ1Le-1" target="a5dJ91-_Ea5F4a9I8LIr-12">
          <mxGeometry relative="1" as="geometry" />
        </mxCell>
        <mxCell id="K8V5T158YyksQDrvnsN--36" style="edgeStyle=orthogonalEdgeStyle;rounded=0;orthogonalLoop=1;jettySize=auto;html=1;entryX=0;entryY=0;entryDx=0;entryDy=0;" edge="1" parent="1" source="uLPrjtta-uE3l_ocZ1Le-1" target="a5dJ91-_Ea5F4a9I8LIr-38">
          <mxGeometry relative="1" as="geometry" />
        </mxCell>
        <mxCell id="K8V5T158YyksQDrvnsN--37" style="edgeStyle=orthogonalEdgeStyle;rounded=0;orthogonalLoop=1;jettySize=auto;html=1;entryX=0;entryY=0.5;entryDx=0;entryDy=0;" edge="1" parent="1" source="uLPrjtta-uE3l_ocZ1Le-1" target="a5dJ91-_Ea5F4a9I8LIr-43">
          <mxGeometry relative="1" as="geometry">
            <Array as="points">
              <mxPoint x="710" y="310" />
              <mxPoint x="710" y="815" />
            </Array>
          </mxGeometry>
        </mxCell>
        <mxCell id="K8V5T158YyksQDrvnsN--40" style="edgeStyle=orthogonalEdgeStyle;rounded=0;orthogonalLoop=1;jettySize=auto;html=1;entryX=0.5;entryY=0;entryDx=0;entryDy=0;" edge="1" parent="1" source="uLPrjtta-uE3l_ocZ1Le-1" target="K8V5T158YyksQDrvnsN--38">
          <mxGeometry relative="1" as="geometry">
            <Array as="points">
              <mxPoint x="145" y="250" />
              <mxPoint x="1005" y="250" />
            </Array>
          </mxGeometry>
        </mxCell>
        <mxCell id="uLPrjtta-uE3l_ocZ1Le-1" value="Kurier&lt;div&gt;&lt;br&gt;&lt;/div&gt;" style="shape=umlActor;verticalLabelPosition=bottom;verticalAlign=top;html=1;outlineConnect=0;" vertex="1" parent="1">
          <mxGeometry x="130" y="290" width="30" height="60" as="geometry" />
        </mxCell>
        <mxCell id="a5dJ91-_Ea5F4a9I8LIr-15" style="edgeStyle=orthogonalEdgeStyle;rounded=0;orthogonalLoop=1;jettySize=auto;html=1;entryX=0.5;entryY=0;entryDx=0;entryDy=0;" edge="1" parent="1" source="a5dJ91-_Ea5F4a9I8LIr-1" target="a5dJ91-_Ea5F4a9I8LIr-12">
          <mxGeometry relative="1" as="geometry" />
        </mxCell>
        <mxCell id="K8V5T158YyksQDrvnsN--18" style="edgeStyle=orthogonalEdgeStyle;rounded=0;orthogonalLoop=1;jettySize=auto;html=1;entryX=0;entryY=1;entryDx=0;entryDy=0;" edge="1" parent="1" source="a5dJ91-_Ea5F4a9I8LIr-1" target="a5dJ91-_Ea5F4a9I8LIr-33">
          <mxGeometry relative="1" as="geometry">
            <Array as="points">
              <mxPoint x="165" y="450" />
              <mxPoint x="492" y="450" />
            </Array>
          </mxGeometry>
        </mxCell>
        <mxCell id="K8V5T158YyksQDrvnsN--33" style="edgeStyle=orthogonalEdgeStyle;rounded=0;orthogonalLoop=1;jettySize=auto;html=1;entryX=0.5;entryY=1;entryDx=0;entryDy=0;" edge="1" parent="1" source="a5dJ91-_Ea5F4a9I8LIr-1" target="K8V5T158YyksQDrvnsN--31">
          <mxGeometry relative="1" as="geometry">
            <Array as="points">
              <mxPoint x="165" y="400" />
              <mxPoint x="414" y="400" />
            </Array>
          </mxGeometry>
        </mxCell>
        <mxCell id="K8V5T158YyksQDrvnsN--43" style="edgeStyle=orthogonalEdgeStyle;rounded=0;orthogonalLoop=1;jettySize=auto;html=1;entryX=0.5;entryY=0;entryDx=0;entryDy=0;" edge="1" parent="1" source="a5dJ91-_Ea5F4a9I8LIr-1" target="a5dJ91-_Ea5F4a9I8LIr-40">
          <mxGeometry relative="1" as="geometry">
            <Array as="points">
              <mxPoint x="442" y="500" />
            </Array>
          </mxGeometry>
        </mxCell>
        <mxCell id="a5dJ91-_Ea5F4a9I8LIr-1" value="Admin&lt;div&gt;&lt;br&gt;&lt;/div&gt;" style="shape=umlActor;verticalLabelPosition=bottom;verticalAlign=top;html=1;outlineConnect=0;" vertex="1" parent="1">
          <mxGeometry x="140" y="550" width="30" height="60" as="geometry" />
        </mxCell>
        <mxCell id="a5dJ91-_Ea5F4a9I8LIr-13" style="edgeStyle=orthogonalEdgeStyle;rounded=0;orthogonalLoop=1;jettySize=auto;html=1;entryX=0;entryY=0.5;entryDx=0;entryDy=0;" edge="1" parent="1" source="a5dJ91-_Ea5F4a9I8LIr-4" target="a5dJ91-_Ea5F4a9I8LIr-12">
          <mxGeometry relative="1" as="geometry" />
        </mxCell>
        <mxCell id="K8V5T158YyksQDrvnsN--17" style="edgeStyle=orthogonalEdgeStyle;rounded=0;orthogonalLoop=1;jettySize=auto;html=1;" edge="1" parent="1" source="a5dJ91-_Ea5F4a9I8LIr-4" target="a5dJ91-_Ea5F4a9I8LIr-56">
          <mxGeometry relative="1" as="geometry">
            <Array as="points">
              <mxPoint x="195" y="930" />
              <mxPoint x="920" y="930" />
            </Array>
          </mxGeometry>
        </mxCell>
        <mxCell id="K8V5T158YyksQDrvnsN--19" style="edgeStyle=orthogonalEdgeStyle;rounded=0;orthogonalLoop=1;jettySize=auto;html=1;" edge="1" parent="1" source="a5dJ91-_Ea5F4a9I8LIr-29" target="a5dJ91-_Ea5F4a9I8LIr-33">
          <mxGeometry relative="1" as="geometry" />
        </mxCell>
        <mxCell id="K8V5T158YyksQDrvnsN--20" style="edgeStyle=orthogonalEdgeStyle;rounded=0;orthogonalLoop=1;jettySize=auto;html=1;entryX=0.5;entryY=1;entryDx=0;entryDy=0;" edge="1" parent="1" source="a5dJ91-_Ea5F4a9I8LIr-4" target="a5dJ91-_Ea5F4a9I8LIr-27">
          <mxGeometry relative="1" as="geometry">
            <Array as="points">
              <mxPoint x="593" y="870" />
            </Array>
          </mxGeometry>
        </mxCell>
        <mxCell id="K8V5T158YyksQDrvnsN--26" style="edgeStyle=orthogonalEdgeStyle;rounded=0;orthogonalLoop=1;jettySize=auto;html=1;" edge="1" parent="1" source="a5dJ91-_Ea5F4a9I8LIr-4" target="a5dJ91-_Ea5F4a9I8LIr-29">
          <mxGeometry relative="1" as="geometry" />
        </mxCell>
        <mxCell id="K8V5T158YyksQDrvnsN--27" style="edgeStyle=orthogonalEdgeStyle;rounded=0;orthogonalLoop=1;jettySize=auto;html=1;" edge="1" parent="1" source="a5dJ91-_Ea5F4a9I8LIr-4" target="a5dJ91-_Ea5F4a9I8LIr-40">
          <mxGeometry relative="1" as="geometry" />
        </mxCell>
        <mxCell id="K8V5T158YyksQDrvnsN--28" style="edgeStyle=orthogonalEdgeStyle;rounded=0;orthogonalLoop=1;jettySize=auto;html=1;" edge="1" parent="1" source="a5dJ91-_Ea5F4a9I8LIr-4" target="a5dJ91-_Ea5F4a9I8LIr-48">
          <mxGeometry relative="1" as="geometry">
            <Array as="points">
              <mxPoint x="195" y="905" />
            </Array>
          </mxGeometry>
        </mxCell>
        <mxCell id="a5dJ91-_Ea5F4a9I8LIr-4" value="UÅ¼ytkownik&lt;div&gt;&lt;br&gt;&lt;/div&gt;" style="shape=umlActor;verticalLabelPosition=bottom;verticalAlign=top;html=1;outlineConnect=0;" vertex="1" parent="1">
          <mxGeometry x="130" y="830" width="30" height="60" as="geometry" />
        </mxCell>
        <mxCell id="K8V5T158YyksQDrvnsN--34" style="edgeStyle=orthogonalEdgeStyle;rounded=0;orthogonalLoop=1;jettySize=auto;html=1;entryX=1;entryY=0.5;entryDx=0;entryDy=0;" edge="1" parent="1" source="a5dJ91-_Ea5F4a9I8LIr-7" target="a5dJ91-_Ea5F4a9I8LIr-43">
          <mxGeometry relative="1" as="geometry">
            <Array as="points">
              <mxPoint x="1639" y="815" />
            </Array>
          </mxGeometry>
        </mxCell>
        <mxCell id="K8V5T158YyksQDrvnsN--35" style="edgeStyle=orthogonalEdgeStyle;rounded=0;orthogonalLoop=1;jettySize=auto;html=1;entryX=1;entryY=0.5;entryDx=0;entryDy=0;" edge="1" parent="1" source="a5dJ91-_Ea5F4a9I8LIr-7" target="a5dJ91-_Ea5F4a9I8LIr-38">
          <mxGeometry relative="1" as="geometry">
            <Array as="points">
              <mxPoint x="1639" y="715" />
            </Array>
          </mxGeometry>
        </mxCell>
        <mxCell id="K8V5T158YyksQDrvnsN--47" style="edgeStyle=orthogonalEdgeStyle;rounded=0;orthogonalLoop=1;jettySize=auto;html=1;entryX=0.5;entryY=1;entryDx=0;entryDy=0;" edge="1" parent="1" source="a5dJ91-_Ea5F4a9I8LIr-7" target="K8V5T158YyksQDrvnsN--45">
          <mxGeometry relative="1" as="geometry">
            <Array as="points">
              <mxPoint x="1639" y="890" />
              <mxPoint x="650" y="890" />
            </Array>
          </mxGeometry>
        </mxCell>
        <mxCell id="_79zXWCnHc2wtlA1qygs-7" style="edgeStyle=orthogonalEdgeStyle;rounded=0;orthogonalLoop=1;jettySize=auto;html=1;exitX=0;exitY=0.3333333333333333;exitDx=0;exitDy=0;exitPerimeter=0;entryX=0.5;entryY=1;entryDx=0;entryDy=0;" edge="1" parent="1" source="a5dJ91-_Ea5F4a9I8LIr-7" target="a5dJ91-_Ea5F4a9I8LIr-60">
          <mxGeometry relative="1" as="geometry" />
        </mxCell>
        <mxCell id="a5dJ91-_Ea5F4a9I8LIr-7" value="Paczkomat&lt;div&gt;&lt;br&gt;&lt;/div&gt;" style="shape=umlActor;verticalLabelPosition=bottom;verticalAlign=top;html=1;outlineConnect=0;" vertex="1" parent="1">
          <mxGeometry x="1590" y="550" width="100" height="60" as="geometry" />
        </mxCell>
        <mxCell id="a5dJ91-_Ea5F4a9I8LIr-28" style="edgeStyle=orthogonalEdgeStyle;rounded=0;orthogonalLoop=1;jettySize=auto;html=1;entryX=0;entryY=0.5;entryDx=0;entryDy=0;dashed=1;" edge="1" parent="1" source="a5dJ91-_Ea5F4a9I8LIr-12" target="a5dJ91-_Ea5F4a9I8LIr-27">
          <mxGeometry relative="1" as="geometry">
            <Array as="points">
              <mxPoint x="390" y="568" />
            </Array>
          </mxGeometry>
        </mxCell>
        <mxCell id="_79zXWCnHc2wtlA1qygs-24" value="&amp;lt;&amp;lt;include&amp;gt;&amp;gt;" style="edgeLabel;html=1;align=center;verticalAlign=middle;resizable=0;points=[];" connectable="0" vertex="1" parent="a5dJ91-_Ea5F4a9I8LIr-28">
          <mxGeometry x="0.3985" y="-2" relative="1" as="geometry">
            <mxPoint y="8" as="offset" />
          </mxGeometry>
        </mxCell>
        <mxCell id="a5dJ91-_Ea5F4a9I8LIr-31" style="edgeStyle=orthogonalEdgeStyle;rounded=0;orthogonalLoop=1;jettySize=auto;html=1;entryX=0;entryY=0.5;entryDx=0;entryDy=0;dashed=1;" edge="1" parent="1" source="a5dJ91-_Ea5F4a9I8LIr-12" target="a5dJ91-_Ea5F4a9I8LIr-29">
          <mxGeometry relative="1" as="geometry" />
        </mxCell>
        <mxCell id="_79zXWCnHc2wtlA1qygs-41" value="&amp;lt;&amp;lt;include&amp;gt;&amp;gt;" style="edgeLabel;html=1;align=center;verticalAlign=middle;resizable=0;points=[];" connectable="0" vertex="1" parent="a5dJ91-_Ea5F4a9I8LIr-31">
          <mxGeometry x="-0.3722" y="3" relative="1" as="geometry">
            <mxPoint as="offset" />
          </mxGeometry>
        </mxCell>
        <mxCell id="a5dJ91-_Ea5F4a9I8LIr-34" style="edgeStyle=orthogonalEdgeStyle;rounded=0;orthogonalLoop=1;jettySize=auto;html=1;entryX=0;entryY=0.5;entryDx=0;entryDy=0;dashed=1;" edge="1" parent="1" source="a5dJ91-_Ea5F4a9I8LIr-12" target="a5dJ91-_Ea5F4a9I8LIr-33">
          <mxGeometry relative="1" as="geometry" />
        </mxCell>
        <mxCell id="_79zXWCnHc2wtlA1qygs-42" value="&amp;lt;&amp;lt;include&amp;gt;&amp;gt;" style="edgeLabel;html=1;align=center;verticalAlign=middle;resizable=0;points=[];" connectable="0" vertex="1" parent="a5dJ91-_Ea5F4a9I8LIr-34">
          <mxGeometry x="-0.1426" y="-2" relative="1" as="geometry">
            <mxPoint as="offset" />
          </mxGeometry>
        </mxCell>
        <mxCell id="a5dJ91-_Ea5F4a9I8LIr-41" style="edgeStyle=orthogonalEdgeStyle;rounded=0;orthogonalLoop=1;jettySize=auto;html=1;entryX=0;entryY=0.5;entryDx=0;entryDy=0;dashed=1;" edge="1" parent="1" source="a5dJ91-_Ea5F4a9I8LIr-12" target="a5dJ91-_Ea5F4a9I8LIr-40">
          <mxGeometry relative="1" as="geometry" />
        </mxCell>
        <mxCell id="_79zXWCnHc2wtlA1qygs-25" value="&amp;lt;&amp;lt;include&amp;gt;&amp;gt;" style="edgeLabel;html=1;align=center;verticalAlign=middle;resizable=0;points=[];" connectable="0" vertex="1" parent="a5dJ91-_Ea5F4a9I8LIr-41">
          <mxGeometry x="-0.3765" y="1" relative="1" as="geometry">
            <mxPoint as="offset" />
          </mxGeometry>
        </mxCell>
        <mxCell id="K8V5T158YyksQDrvnsN--21" style="edgeStyle=orthogonalEdgeStyle;rounded=0;orthogonalLoop=1;jettySize=auto;html=1;entryX=0;entryY=1;entryDx=0;entryDy=0;dashed=1;" edge="1" parent="1" source="a5dJ91-_Ea5F4a9I8LIr-12" target="a5dJ91-_Ea5F4a9I8LIr-56">
          <mxGeometry relative="1" as="geometry" />
        </mxCell>
        <mxCell id="_79zXWCnHc2wtlA1qygs-23" value="&amp;lt;&amp;lt;include&amp;gt;&amp;gt;" style="edgeLabel;html=1;align=center;verticalAlign=middle;resizable=0;points=[];" connectable="0" vertex="1" parent="K8V5T158YyksQDrvnsN--21">
          <mxGeometry x="-0.3348" y="-2" relative="1" as="geometry">
            <mxPoint x="-1" as="offset" />
          </mxGeometry>
        </mxCell>
        <mxCell id="a5dJ91-_Ea5F4a9I8LIr-12" value="Logowanie" style="ellipse;whiteSpace=wrap;html=1;" vertex="1" parent="1">
          <mxGeometry x="350" y="600" width="80" height="40" as="geometry" />
        </mxCell>
        <mxCell id="_79zXWCnHc2wtlA1qygs-45" style="edgeStyle=orthogonalEdgeStyle;rounded=0;orthogonalLoop=1;jettySize=auto;html=1;exitX=1;exitY=0;exitDx=0;exitDy=0;entryX=1;entryY=1;entryDx=0;entryDy=0;dashed=1;" edge="1" parent="1" source="a5dJ91-_Ea5F4a9I8LIr-17" target="a5dJ91-_Ea5F4a9I8LIr-12">
          <mxGeometry relative="1" as="geometry" />
        </mxCell>
        <mxCell id="_79zXWCnHc2wtlA1qygs-46" value="&amp;lt;&amp;lt;extend&amp;gt;&amp;gt;" style="edgeLabel;html=1;align=center;verticalAlign=middle;resizable=0;points=[];" connectable="0" vertex="1" parent="_79zXWCnHc2wtlA1qygs-45">
          <mxGeometry x="-0.2631" relative="1" as="geometry">
            <mxPoint as="offset" />
          </mxGeometry>
        </mxCell>
        <mxCell id="a5dJ91-_Ea5F4a9I8LIr-17" value="Rejestracja" style="ellipse;whiteSpace=wrap;html=1;" vertex="1" parent="1">
          <mxGeometry x="290" y="720" width="80" height="40" as="geometry" />
        </mxCell>
        <mxCell id="a5dJ91-_Ea5F4a9I8LIr-51" style="edgeStyle=orthogonalEdgeStyle;rounded=0;orthogonalLoop=1;jettySize=auto;html=1;entryX=0.5;entryY=0;entryDx=0;entryDy=0;dashed=1;" edge="1" parent="1" source="a5dJ91-_Ea5F4a9I8LIr-27" target="a5dJ91-_Ea5F4a9I8LIr-38">
          <mxGeometry relative="1" as="geometry" />
        </mxCell>
        <mxCell id="_79zXWCnHc2wtlA1qygs-40" value="&amp;lt;&amp;lt;include&amp;gt;&amp;gt;" style="edgeLabel;html=1;align=center;verticalAlign=middle;resizable=0;points=[];" connectable="0" vertex="1" parent="a5dJ91-_Ea5F4a9I8LIr-51">
          <mxGeometry x="0.4311" y="2" relative="1" as="geometry">
            <mxPoint as="offset" />
          </mxGeometry>
        </mxCell>
        <mxCell id="a5dJ91-_Ea5F4a9I8LIr-27" value="Nadaj paczke" style="ellipse;whiteSpace=wrap;html=1;" vertex="1" parent="1">
          <mxGeometry x="550" y="550" width="85" height="35" as="geometry" />
        </mxCell>
        <mxCell id="K8V5T158YyksQDrvnsN--11" style="edgeStyle=orthogonalEdgeStyle;rounded=0;orthogonalLoop=1;jettySize=auto;html=1;dashed=1;" edge="1" parent="1" source="a5dJ91-_Ea5F4a9I8LIr-29" target="K8V5T158YyksQDrvnsN--8">
          <mxGeometry relative="1" as="geometry" />
        </mxCell>
        <mxCell id="_79zXWCnHc2wtlA1qygs-28" value="&amp;lt;&amp;lt;include&amp;gt;&amp;gt;" style="edgeLabel;html=1;align=center;verticalAlign=middle;resizable=0;points=[];" connectable="0" vertex="1" parent="K8V5T158YyksQDrvnsN--11">
          <mxGeometry x="-0.1384" relative="1" as="geometry">
            <mxPoint y="21" as="offset" />
          </mxGeometry>
        </mxCell>
        <mxCell id="a5dJ91-_Ea5F4a9I8LIr-33" value="edycja danych" style="ellipse;whiteSpace=wrap;html=1;" vertex="1" parent="1">
          <mxGeometry x="480" y="390" width="80" height="30" as="geometry" />
        </mxCell>
        <mxCell id="a5dJ91-_Ea5F4a9I8LIr-57" value="" style="edgeStyle=orthogonalEdgeStyle;rounded=0;orthogonalLoop=1;jettySize=auto;html=1;dashed=1;" edge="1" parent="1" source="a5dJ91-_Ea5F4a9I8LIr-35" target="a5dJ91-_Ea5F4a9I8LIr-56">
          <mxGeometry relative="1" as="geometry">
            <Array as="points">
              <mxPoint x="815" y="420" />
              <mxPoint x="815" y="415" />
            </Array>
          </mxGeometry>
        </mxCell>
        <mxCell id="_79zXWCnHc2wtlA1qygs-22" value="&amp;lt;&amp;lt;include&amp;gt;&amp;gt;" style="edgeLabel;html=1;align=center;verticalAlign=middle;resizable=0;points=[];" connectable="0" vertex="1" parent="a5dJ91-_Ea5F4a9I8LIr-57">
          <mxGeometry x="-0.4682" y="-3" relative="1" as="geometry">
            <mxPoint as="offset" />
          </mxGeometry>
        </mxCell>
        <mxCell id="a5dJ91-_Ea5F4a9I8LIr-35" value="zapÅaÄ" style="ellipse;whiteSpace=wrap;html=1;" vertex="1" parent="1">
          <mxGeometry x="610" y="400" width="80" height="30" as="geometry" />
        </mxCell>
        <mxCell id="a5dJ91-_Ea5F4a9I8LIr-44" style="edgeStyle=orthogonalEdgeStyle;rounded=0;orthogonalLoop=1;jettySize=auto;html=1;dashed=1;" edge="1" parent="1" source="a5dJ91-_Ea5F4a9I8LIr-38" target="a5dJ91-_Ea5F4a9I8LIr-43">
          <mxGeometry relative="1" as="geometry" />
        </mxCell>
        <mxCell id="_79zXWCnHc2wtlA1qygs-30" value="&amp;lt;&amp;lt;include&amp;gt;&amp;gt;" style="edgeLabel;html=1;align=center;verticalAlign=middle;resizable=0;points=[];" connectable="0" vertex="1" parent="a5dJ91-_Ea5F4a9I8LIr-44">
          <mxGeometry x="-0.1378" y="-1" relative="1" as="geometry">
            <mxPoint x="-23" as="offset" />
          </mxGeometry>
        </mxCell>
        <mxCell id="a5dJ91-_Ea5F4a9I8LIr-38" value="otwÃ³rz paczkomat" style="ellipse;whiteSpace=wrap;html=1;" vertex="1" parent="1">
          <mxGeometry x="827" y="692.5" width="75" height="45" as="geometry" />
        </mxCell>
        <mxCell id="a5dJ91-_Ea5F4a9I8LIr-49" style="edgeStyle=orthogonalEdgeStyle;rounded=0;orthogonalLoop=1;jettySize=auto;html=1;dashed=1;" edge="1" parent="1" source="a5dJ91-_Ea5F4a9I8LIr-40" target="a5dJ91-_Ea5F4a9I8LIr-48">
          <mxGeometry relative="1" as="geometry">
            <Array as="points">
              <mxPoint x="460" y="850" />
              <mxPoint x="470" y="850" />
            </Array>
          </mxGeometry>
        </mxCell>
        <mxCell id="_79zXWCnHc2wtlA1qygs-39" value="&amp;lt;&amp;lt;extend&amp;gt;&amp;gt;" style="edgeLabel;html=1;align=center;verticalAlign=middle;resizable=0;points=[];" connectable="0" vertex="1" parent="a5dJ91-_Ea5F4a9I8LIr-49">
          <mxGeometry x="-0.3269" relative="1" as="geometry">
            <mxPoint x="20" y="-8" as="offset" />
          </mxGeometry>
        </mxCell>
        <mxCell id="a5dJ91-_Ea5F4a9I8LIr-40" value="zarzÄdzaj paczkÄ" style="ellipse;whiteSpace=wrap;html=1;" vertex="1" parent="1">
          <mxGeometry x="410" y="770" width="63.75" height="40" as="geometry" />
        </mxCell>
        <mxCell id="a5dJ91-_Ea5F4a9I8LIr-43" value="zamknij paczkomat" style="ellipse;whiteSpace=wrap;html=1;" vertex="1" parent="1">
          <mxGeometry x="819.5" y="800" width="90" height="30" as="geometry" />
        </mxCell>
        <mxCell id="a5dJ91-_Ea5F4a9I8LIr-48" value="ÅledÅº paczke" style="ellipse;whiteSpace=wrap;html=1;" vertex="1" parent="1">
          <mxGeometry x="440" y="890" width="60" height="30" as="geometry" />
        </mxCell>
        <mxCell id="a5dJ91-_Ea5F4a9I8LIr-56" value="generuj etykiete" style="ellipse;whiteSpace=wrap;html=1;" vertex="1" parent="1">
          <mxGeometry x="940" y="400" width="80" height="30" as="geometry" />
        </mxCell>
        <mxCell id="K8V5T158YyksQDrvnsN--22" style="edgeStyle=orthogonalEdgeStyle;rounded=0;orthogonalLoop=1;jettySize=auto;html=1;" edge="1" parent="1" source="a5dJ91-_Ea5F4a9I8LIr-59" target="a5dJ91-_Ea5F4a9I8LIr-56">
          <mxGeometry relative="1" as="geometry" />
        </mxCell>
        <mxCell id="a5dJ91-_Ea5F4a9I8LIr-59" value="wybierz miejsce na mapie" style="ellipse;whiteSpace=wrap;html=1;" vertex="1" parent="1">
          <mxGeometry x="595" y="340" width="110" height="30" as="geometry" />
        </mxCell>
        <mxCell id="K8V5T158YyksQDrvnsN--23" style="edgeStyle=orthogonalEdgeStyle;rounded=0;orthogonalLoop=1;jettySize=auto;html=1;" edge="1" parent="1" source="a5dJ91-_Ea5F4a9I8LIr-60" target="a5dJ91-_Ea5F4a9I8LIr-56">
          <mxGeometry relative="1" as="geometry" />
        </mxCell>
        <mxCell id="a5dJ91-_Ea5F4a9I8LIr-60" value="dane przesyÅki" style="ellipse;whiteSpace=wrap;html=1;" vertex="1" parent="1">
          <mxGeometry x="610" y="465" width="81.87" height="35" as="geometry" />
        </mxCell>
        <mxCell id="K8V5T158YyksQDrvnsN--10" style="edgeStyle=orthogonalEdgeStyle;rounded=0;orthogonalLoop=1;jettySize=auto;html=1;entryX=0;entryY=0.5;entryDx=0;entryDy=0;dashed=1;" edge="1" parent="1" source="K8V5T158YyksQDrvnsN--8" target="a5dJ91-_Ea5F4a9I8LIr-38">
          <mxGeometry relative="1" as="geometry" />
        </mxCell>
        <mxCell id="_79zXWCnHc2wtlA1qygs-29" value="&amp;lt;&amp;lt;include&amp;gt;&amp;gt;" style="edgeLabel;html=1;align=center;verticalAlign=middle;resizable=0;points=[];" connectable="0" vertex="1" parent="K8V5T158YyksQDrvnsN--10">
          <mxGeometry x="0.01" relative="1" as="geometry">
            <mxPoint y="-11" as="offset" />
          </mxGeometry>
        </mxCell>
        <mxCell id="K8V5T158YyksQDrvnsN--8" value="wpisz kod obioru" style="ellipse;whiteSpace=wrap;html=1;" vertex="1" parent="1">
          <mxGeometry x="611.87" y="690" width="80" height="50" as="geometry" />
        </mxCell>
        <mxCell id="K8V5T158YyksQDrvnsN--15" style="edgeStyle=orthogonalEdgeStyle;rounded=0;orthogonalLoop=1;jettySize=auto;html=1;entryX=0.5;entryY=1;entryDx=0;entryDy=0;" edge="1" parent="1" source="a5dJ91-_Ea5F4a9I8LIr-4" target="a5dJ91-_Ea5F4a9I8LIr-17">
          <mxGeometry relative="1" as="geometry">
            <mxPoint x="344.9100000000001" y="749.98" as="targetPoint" />
            <Array as="points">
              <mxPoint x="330" y="840" />
            </Array>
          </mxGeometry>
        </mxCell>
        <mxCell id="K8V5T158YyksQDrvnsN--16" value="frame" style="shape=umlFrame;whiteSpace=wrap;html=1;pointerEvents=0;" vertex="1" parent="1">
          <mxGeometry x="200" y="185" width="1210" height="800" as="geometry" />
        </mxCell>
        <mxCell id="K8V5T158YyksQDrvnsN--25" value="" style="edgeStyle=orthogonalEdgeStyle;rounded=0;orthogonalLoop=1;jettySize=auto;html=1;" edge="1" parent="1" source="a5dJ91-_Ea5F4a9I8LIr-4" target="a5dJ91-_Ea5F4a9I8LIr-29">
          <mxGeometry relative="1" as="geometry">
            <mxPoint x="210" y="860" as="sourcePoint" />
            <mxPoint x="520" y="500" as="targetPoint" />
            <Array as="points">
              <mxPoint x="195" y="950" />
              <mxPoint x="550" y="950" />
            </Array>
          </mxGeometry>
        </mxCell>
        <mxCell id="a5dJ91-_Ea5F4a9I8LIr-29" value="Odbierz paczke" style="ellipse;whiteSpace=wrap;html=1;" vertex="1" parent="1">
          <mxGeometry x="482.5" y="700" width="75" height="30" as="geometry" />
        </mxCell>
        <mxCell id="K8V5T158YyksQDrvnsN--31" value="dodaj konto" style="ellipse;whiteSpace=wrap;html=1;" vertex="1" parent="1">
          <mxGeometry x="377" y="250" width="73.75" height="50" as="geometry" />
        </mxCell>
        <mxCell id="K8V5T158YyksQDrvnsN--41" style="edgeStyle=orthogonalEdgeStyle;rounded=0;orthogonalLoop=1;jettySize=auto;html=1;entryX=1;entryY=0;entryDx=0;entryDy=0;dashed=1;" edge="1" parent="1" source="K8V5T158YyksQDrvnsN--38" target="a5dJ91-_Ea5F4a9I8LIr-38">
          <mxGeometry relative="1" as="geometry" />
        </mxCell>
        <mxCell id="_79zXWCnHc2wtlA1qygs-21" value="&amp;lt;&amp;lt;include&amp;gt;&amp;gt;" style="edgeLabel;html=1;align=center;verticalAlign=middle;resizable=0;points=[];" connectable="0" vertex="1" parent="K8V5T158YyksQDrvnsN--41">
          <mxGeometry x="-0.8284" y="1" relative="1" as="geometry">
            <mxPoint x="-39" y="14" as="offset" />
          </mxGeometry>
        </mxCell>
        <mxCell id="K8V5T158YyksQDrvnsN--38" value="dostarcz paczke" style="ellipse;whiteSpace=wrap;html=1;" vertex="1" parent="1">
          <mxGeometry x="970" y="280" width="70" height="50" as="geometry" />
        </mxCell>
        <mxCell id="K8V5T158YyksQDrvnsN--45" value="wyÅlij sms" style="ellipse;whiteSpace=wrap;html=1;" vertex="1" parent="1">
          <mxGeometry x="620.94" y="790" width="58.13" height="30" as="geometry" />
        </mxCell>
        <mxCell id="_79zXWCnHc2wtlA1qygs-27" value="zabranie paczki z sortowni" style="ellipse;whiteSpace=wrap;html=1;" vertex="1" parent="1">
          <mxGeometry x="595" y="220" width="120" height="80" as="geometry" />
        </mxCell>
        <mxCell id="_79zXWCnHc2wtlA1qygs-37" style="edgeStyle=orthogonalEdgeStyle;rounded=0;orthogonalLoop=1;jettySize=auto;html=1;exitX=0;exitY=0.5;exitDx=0;exitDy=0;entryX=1;entryY=0;entryDx=0;entryDy=0;dashed=1;" edge="1" parent="1" source="_79zXWCnHc2wtlA1qygs-32" target="a5dJ91-_Ea5F4a9I8LIr-43">
          <mxGeometry relative="1" as="geometry" />
        </mxCell>
        <mxCell id="_79zXWCnHc2wtlA1qygs-38" value="&amp;lt;&amp;lt;include&amp;gt;&amp;gt;" style="edgeLabel;html=1;align=center;verticalAlign=middle;resizable=0;points=[];" connectable="0" vertex="1" parent="_79zXWCnHc2wtlA1qygs-37">
          <mxGeometry x="0.1646" y="1" relative="1" as="geometry">
            <mxPoint as="offset" />
          </mxGeometry>
        </mxCell>
        <mxCell id="_79zXWCnHc2wtlA1qygs-32" value="wyswietl powiadomienie" style="ellipse;whiteSpace=wrap;html=1;" vertex="1" parent="1">
          <mxGeometry x="1030" y="737.5" width="120" height="60" as="geometry" />
        </mxCell>
      </root>
    </mxGraphModel>
  </diagram>
</mxfile>
